<svg width="34" height="19" viewBox="0 0 34 19" fill="none" xmlns="http://www.w3.org/2000/svg">
<g opacity="0.4">
<path opacity="0.4" d="M3.1662 14.144L5.63956 18.2036C5.79 18.4514 5.61301 18.77 5.32099 18.77H0.374261C0.0822361 18.77 -0.0969609 18.4514 0.0556885 18.2036L2.52905 14.144C2.67285 13.9051 3.02018 13.9051 3.1662 14.144Z" fill="#00B287"/>
<path opacity="0.4" d="M7.73245 7.16357L10.2058 11.2232C10.3563 11.4709 10.1793 11.7895 9.88724 11.7895H4.94051C4.64849 11.7895 4.46929 11.4709 4.62194 11.2232L7.09309 7.16357C7.23911 6.92464 7.58644 6.92464 7.73245 7.16357Z" fill="#00B287"/>
</g>
<path d="M30.5634 14.144L33.0368 18.2036C33.1872 18.4514 33.0102 18.77 32.7182 18.77H27.7737C27.4816 18.77 27.3025 18.4514 27.4551 18.2036L29.9285 14.144C30.0723 13.9051 30.4174 13.9051 30.5634 14.144Z" fill="#00B287"/>
<path d="M21.4311 14.144L23.9045 18.2036C24.0549 18.4514 23.8779 18.77 23.5859 18.77H18.6392C18.3471 18.77 18.1679 18.4514 18.3206 18.2036L20.7939 14.144C20.9377 13.9051 21.2851 13.9051 21.4311 14.144Z" fill="#00B287"/>
<path d="M12.2988 14.144L14.7699 18.2036C14.9204 18.4514 14.7434 18.77 14.4513 18.77H9.50683C9.2148 18.77 9.03561 18.4514 9.18826 18.2036L11.6616 14.144C11.8054 13.9051 12.1528 13.9051 12.2988 14.144Z" fill="#00B287"/>
<path d="M16.8649 7.15967L19.3383 11.2193C19.4887 11.467 19.3117 11.7856 19.0197 11.7856H14.073C13.781 11.7856 13.6018 11.467 13.7544 11.2193L16.2278 7.15967C16.3716 6.92074 16.7189 6.92074 16.8649 7.15967Z" fill="#00B287"/>
<path d="M21.431 0.179197L23.9044 4.23879C24.0548 4.48657 23.8778 4.80514 23.5858 4.80514H18.6391C18.3471 4.80514 18.1679 4.48657 18.3205 4.23879L20.7939 0.179197C20.9377 -0.0597323 21.285 -0.0597323 21.431 0.179197Z" fill="#00B287"/>
<path d="M25.9972 7.15967L28.4706 11.2193C28.621 11.467 28.4441 11.7856 28.152 11.7856H23.2075C22.9155 11.7856 22.7363 11.467 22.8889 11.2193L25.3623 7.15967C25.5039 6.92074 25.8512 6.92074 25.9972 7.15967Z" fill="#00B287"/>
</svg>
